<svg version="1.1" id="Layer_1" xmlns="http://www.w3.org/2000/svg" xmlns:xlink="http://www.w3.org/1999/xlink" x="0px" y="0px"
	 width="2%" viewBox="0 0 162 72" enable-background="new 0 0 162 72" xml:space="preserve">
<path fill="#2A2A29" opacity="1.000000" stroke="none" 
	d="
M102.000000,73.000000 
	C68.000008,73.000000 34.500008,73.000000 1.000009,73.000000 
	C1.000006,49.000008 1.000006,25.000013 1.000003,1.000015 
	C54.999985,1.000010 108.999969,1.000010 162.999969,1.000005 
	C162.999969,24.999985 162.999969,48.999969 162.999985,72.999977 
	C142.833328,73.000000 122.666664,73.000000 102.000000,73.000000 
M111.470261,41.589836 
	C104.099770,43.633751 103.491196,44.804031 106.920166,50.764107 
	C104.612953,51.186440 102.305748,51.608772 99.135124,51.794434 
	C95.987823,51.506012 92.840523,51.217587 90.646561,50.475349 
	C91.124847,49.980019 91.603134,49.484688 92.636353,49.087147 
	C93.750374,48.436062 94.864388,47.784977 96.597443,46.819202 
	C98.007355,44.443184 100.014671,42.229534 100.713013,39.660118 
	C102.658699,32.501347 100.018501,29.714893 92.520302,31.237890 
	C91.340042,32.385967 90.159775,33.534046 88.471260,35.193485 
	C87.645287,36.811474 86.582138,38.353703 86.036674,40.061295 
	C84.215027,45.763977 85.153595,48.410099 88.550804,51.308483 
	C86.571190,51.749767 84.591583,52.191051 82.182236,53.313343 
	C83.743530,53.982578 85.296188,55.211304 86.867439,55.235565 
	C105.042038,55.516193 123.219452,55.614605 141.880493,55.567120 
	C141.990982,51.313541 142.116638,47.060120 142.160217,42.805859 
	C142.162079,42.622826 141.406479,42.432041 141.934250,42.677319 
	C140.178619,44.718639 138.738953,46.392567 137.073059,47.332993 
	C136.420715,44.888813 135.768372,42.444637 135.431625,39.732510 
	C135.635300,39.545494 135.824799,39.345085 136.566177,38.758377 
	C134.962357,36.568142 133.358536,34.377907 131.699570,32.124287 
	C131.699570,32.124287 131.734253,32.184715 132.208084,31.500385 
	C133.474792,31.260906 134.741516,31.021429 136.147461,31.437956 
	C138.603668,32.814537 141.059891,34.191120 143.603638,35.616768 
	C146.964615,30.930727 142.890533,21.947582 135.387878,19.746960 
	C133.103500,19.746960 130.819107,19.746960 128.441879,19.746960 
	C127.816460,12.703420 123.506828,15.963156 121.051613,16.169977 
	C120.398346,18.570343 119.902504,20.392271 119.406662,22.214197 
	C117.196243,21.254980 114.985817,20.295763 112.338867,19.147114 
	C112.041649,20.431675 110.752205,22.893152 111.417450,23.660896 
	C114.513840,27.234337 112.351845,30.520397 111.142380,34.211361 
	C111.464470,36.536568 111.786552,38.861774 111.470261,41.589836 
M33.638897,49.915443 
	C40.733025,49.330227 39.765686,42.595844 42.436699,38.347252 
	C39.744278,38.347252 37.175190,38.347252 34.494133,38.347252 
	C37.382507,43.841488 36.362682,46.585026 30.156921,48.315193 
	C24.771128,46.591202 22.745066,43.918694 23.444717,37.942314 
	C23.905188,34.009029 25.365002,30.192736 26.372705,26.323027 
	C17.993021,30.214972 16.214699,43.400219 22.914190,50.482273 
	C22.628550,51.050201 22.342911,51.618130 21.315502,52.345463 
	C20.569990,53.003731 19.824476,53.661999 19.078962,54.320271 
	C20.004148,54.790119 20.926279,55.662487 21.854979,55.669533 
	C36.170998,55.778236 50.487869,55.775230 64.804543,55.795948 
	C67.173050,55.799377 68.396751,55.000816 66.862511,51.932316 
	C66.417511,51.556438 65.972504,51.180561 65.978165,50.308254 
	C67.445221,49.283752 68.912270,48.259251 70.428719,47.200260 
	C64.306427,41.649315 71.126122,35.813499 67.905098,30.315266 
	C66.203133,31.335016 64.727219,32.219322 62.765812,32.625969 
	C58.395901,27.952488 56.467072,32.208454 53.757610,34.416504 
	C53.143013,33.172558 52.528412,31.928612 51.668762,30.188681 
	C49.620384,31.557882 47.920200,32.694340 46.817097,33.431690 
	C47.357018,35.784035 48.161518,37.474213 48.031914,39.089447 
	C47.730598,42.844707 46.978867,46.563835 46.214535,50.626179 
	C46.125324,50.998089 46.036110,51.370003 45.030312,51.830952 
	C41.014324,51.884853 36.998341,51.938755 32.981609,51.385864 
	C32.964485,50.982075 32.947361,50.578281 33.638897,49.915443 
M74.483315,47.635281 
	C73.699234,51.347385 72.915146,55.059486 72.131058,58.771591 
	C72.623009,58.976868 73.114960,59.182144 73.606903,59.387421 
	C74.622559,57.713718 76.060181,56.158779 76.571205,54.343060 
	C77.871864,49.721573 78.558594,44.926071 79.885185,40.313568 
	C80.684860,37.533127 82.221786,34.964725 83.526871,32.081326 
	C77.769691,29.601622 84.455330,24.198540 82.048668,19.177404 
	C79.319054,24.478855 76.996071,28.990559 74.686302,33.476589 
	C77.794159,37.672390 74.673149,42.279266 74.483315,47.635281 
M40.769371,26.928097 
	C40.650372,25.777962 40.702595,23.681736 40.385826,23.624405 
	C37.302567,23.066401 34.157570,22.849512 31.030165,22.535421 
	C31.048046,22.876677 31.065928,23.217932 31.083809,23.559189 
	C34.167816,24.824024 37.251820,26.088861 40.769371,26.928097 
M62.178009,63.542431 
	C60.662983,62.883396 59.147953,62.224361 57.054993,61.313927 
	C58.505066,66.338531 60.239834,66.795898 66.492317,64.350410 
	C64.945190,64.117897 63.882122,63.958126 62.178009,63.542431 
z"/>
<path fill="#D2AC03" opacity="1.000000" stroke="none" 
	d="
M135.116028,40.000462 
	C135.768372,42.444637 136.420715,44.888813 137.130890,47.633965 
	C137.188736,47.934933 137.057083,48.045395 136.712051,48.014717 
	C134.899078,47.339985 133.431122,46.695930 131.871979,45.788322 
	C131.307556,44.982021 130.834351,44.439266 130.291504,43.566849 
	C130.078049,42.578896 129.934219,41.920609 129.705933,41.005825 
	C128.414566,41.166573 127.207680,41.583813 125.616936,42.015991 
	C124.210014,41.991024 123.186935,41.951122 122.058289,41.941154 
	C121.952713,41.971085 121.764687,42.084305 121.826813,41.802216 
	C121.865044,41.329041 121.841164,41.137962 121.879623,40.615372 
	C122.332855,39.278172 122.723724,38.272476 123.359131,37.169830 
	C123.397369,36.450439 123.191063,35.827999 122.640778,35.023991 
	C119.316032,35.206852 116.335266,35.571285 113.006393,35.645531 
	C112.298882,34.878429 111.939499,34.401520 111.580116,33.924614 
	C112.351845,30.520397 114.513840,27.234337 111.417450,23.660896 
	C110.752205,22.893152 112.041649,20.431675 112.338867,19.147114 
	C114.985817,20.295763 117.196243,21.254980 119.406662,22.214199 
	C119.902504,20.392271 120.398346,18.570343 121.051613,16.169977 
	C123.506828,15.963156 127.816460,12.703420 128.441879,19.746960 
	C130.819107,19.746960 133.103500,19.746960 135.599091,20.212925 
	C133.792267,23.519299 134.212036,26.454424 135.518250,29.495022 
	C135.565872,29.567907 135.374313,29.593159 135.374313,29.593159 
	C135.374313,29.593159 135.428604,29.348463 135.555939,29.713943 
	C135.791565,30.313601 135.899887,30.547777 136.008224,30.781952 
	C134.741516,31.021429 133.474792,31.260906 131.835480,31.585340 
	C130.956894,31.197556 130.450928,30.724815 129.944946,30.252075 
	C129.777313,30.485542 129.609665,30.719007 129.442017,30.952473 
	C130.212921,31.364206 130.983810,31.775940 131.754715,32.187668 
	C133.358536,34.377907 134.962357,36.568142 136.023697,38.941422 
	C135.359482,39.416462 135.237747,39.708462 135.116028,40.000462 
z"/>
<path fill="#D2AC03" opacity="1.000000" stroke="none" 
	d="
M141.396118,55.761387 
	C123.219452,55.614605 105.042038,55.516193 86.867439,55.235565 
	C85.296188,55.211304 83.743530,53.982578 82.888931,52.997963 
	C89.063271,52.465424 94.530899,52.248264 99.998535,52.031105 
	C102.305748,51.608772 104.612953,51.186440 107.280724,50.110901 
	C109.859962,48.852592 112.078636,48.247486 114.612152,47.501152 
	C117.521698,46.854092 120.116425,46.348259 123.112144,45.869301 
	C124.049591,45.924850 124.586029,45.953529 125.145538,46.347321 
	C126.624519,48.054302 127.909470,50.189060 129.577209,50.548676 
	C131.965347,51.063637 134.633102,50.281815 137.314514,50.403782 
	C139.145798,52.121792 142.002228,52.576443 141.396118,55.761387 
z"/>
<path fill="#303030" opacity="1.000000" stroke="none" 
	d="
M54.133991,34.985683 
	C56.467072,32.208454 58.395901,27.952488 62.933594,33.157867 
	C63.254322,36.536907 63.498432,39.382904 63.534294,42.231525 
	C63.569328,45.014683 63.391827,47.800518 63.249825,51.004616 
	C63.151306,51.703369 63.110588,51.982681 62.600822,52.305695 
	C57.436466,52.163216 52.741165,51.977043 48.049915,51.537949 
	C48.029316,50.949249 48.004658,50.613461 48.303139,50.097954 
	C50.462181,44.940716 52.298088,39.963200 54.133991,34.985683 
z"/>
<path fill="#898989" opacity="1.000000" stroke="none" 
	d="
M74.557549,47.211136 
	C74.673149,42.279266 77.794159,37.672390 74.686302,33.476589 
	C76.996071,28.990559 79.319054,24.478855 82.048668,19.177404 
	C84.455330,24.198540 77.769691,29.601622 83.526871,32.081326 
	C82.221786,34.964725 80.684860,37.533127 79.885185,40.313568 
	C78.558594,44.926071 77.871864,49.721573 76.571205,54.343060 
	C76.060181,56.158779 74.622559,57.713718 73.606903,59.387421 
	C73.114960,59.182144 72.623009,58.976868 72.131058,58.771591 
	C72.915146,55.059486 73.699234,51.347385 74.557549,47.211136 
z"/>
<path fill="#B99909" opacity="1.000000" stroke="none" 
	d="
M48.045860,51.790867 
	C52.741165,51.977043 57.436466,52.163216 62.919285,52.427765 
	C64.839790,52.493572 65.972786,52.480995 67.105774,52.468418 
	C68.396751,55.000816 67.173050,55.799377 64.804543,55.795948 
	C50.487869,55.775230 36.170998,55.778236 21.854979,55.669533 
	C20.926279,55.662487 20.004148,54.790119 19.078962,54.320271 
	C19.824476,53.661999 20.569990,53.003731 22.130121,52.371193 
	C26.290611,52.262165 29.636482,52.127411 32.982353,51.992657 
	C36.998341,51.938755 41.014324,51.884853 45.833649,51.869686 
	C47.106613,51.869236 47.576237,51.830051 48.045860,51.790867 
z"/>
<path fill="#909090" opacity="1.000000" stroke="none" 
	d="
M23.191544,49.909531 
	C16.214699,43.400219 17.993021,30.214972 26.375011,26.323540 
	C25.365002,30.192736 23.905188,34.009029 23.444717,37.942314 
	C22.745066,43.918694 24.771128,46.591202 30.537607,48.678066 
	C30.946800,49.385452 30.975307,49.729965 30.664394,50.181381 
	C27.947163,50.162033 25.569353,50.035782 23.191544,49.909531 
z"/>
<path fill="#313131" opacity="1.000000" stroke="none" 
	d="
M88.979515,34.682125 
	C90.159775,33.534046 91.340042,32.385967 92.951973,31.469427 
	C96.880188,34.032810 97.414986,37.179081 96.347183,41.066719 
	C95.822044,42.978634 96.076653,45.104725 95.978409,47.133892 
	C94.864388,47.784977 93.750374,48.436062 92.034592,48.813137 
	C90.894165,45.912029 90.308594,43.293404 89.832237,40.655052 
	C89.475143,38.677231 89.258629,36.674026 88.979515,34.682125 
z"/>
<path fill="#C29F07" opacity="1.000000" stroke="none" 
	d="
M136.077850,31.109955 
	C135.899887,30.547777 135.791565,30.313601 135.602600,29.718117 
	C135.521927,29.356808 135.470612,29.422138 135.470612,29.422138 
	C134.212036,26.454424 133.792267,23.519299 135.902100,20.347115 
	C142.890533,21.947582 146.964615,30.930727 143.603638,35.616768 
	C141.059891,34.191120 138.603668,32.814537 136.077850,31.109955 
z"/>
<path fill="#878787" opacity="1.000000" stroke="none" 
	d="
M63.307625,50.585175 
	C63.391827,47.800518 63.569328,45.014683 63.534294,42.231525 
	C63.498432,39.382904 63.254322,36.536907 63.176338,33.396698 
	C64.727219,32.219322 66.203133,31.335016 67.905098,30.315266 
	C71.126122,35.813499 64.306427,41.649315 70.428719,47.200260 
	C68.912270,48.259251 67.445221,49.283752 65.484787,50.468346 
	C64.430145,50.614017 63.868885,50.599598 63.307625,50.585175 
z"/>
<path fill="#868686" opacity="1.000000" stroke="none" 
	d="
M53.945801,34.701096 
	C52.298088,39.963200 50.462181,44.940716 47.910824,50.078087 
	C46.933472,50.257828 46.671570,50.277718 46.409672,50.297604 
	C46.978867,46.563835 47.730598,42.844707 48.031914,39.089447 
	C48.161518,37.474213 47.357018,35.784035 46.817097,33.431690 
	C47.920200,32.694340 49.620384,31.557882 51.668762,30.188681 
	C52.528412,31.928612 53.143013,33.172558 53.945801,34.701096 
z"/>
<path fill="#8C8C8C" opacity="1.000000" stroke="none" 
	d="
M96.287918,46.976547 
	C96.076653,45.104725 95.822044,42.978634 96.347183,41.066719 
	C97.414986,37.179081 96.880188,34.032810 93.264938,31.376812 
	C100.018501,29.714893 102.658699,32.501347 100.713013,39.660118 
	C100.014671,42.229534 98.007355,44.443184 96.287918,46.976547 
z"/>
<path fill="#808080" opacity="1.000000" stroke="none" 
	d="
M31.003815,50.074478 
	C30.975307,49.729965 30.946800,49.385452 30.910872,48.781784 
	C36.362682,46.585026 37.382507,43.841488 34.494133,38.347252 
	C37.175190,38.347252 39.744278,38.347252 42.436699,38.347252 
	C39.765686,42.595844 40.733025,49.330227 32.965233,50.023281 
	C31.862320,50.112240 31.433067,50.093361 31.003815,50.074478 
z"/>
<path fill="#888887" opacity="1.000000" stroke="none" 
	d="
M88.725388,34.937805 
	C89.258629,36.674026 89.475143,38.677231 89.832237,40.655052 
	C90.308594,43.293404 90.894165,45.912029 91.757126,48.764244 
	C91.603134,49.484688 91.124847,49.980019 90.203865,50.699509 
	C89.761169,50.923664 89.591301,50.927509 89.591301,50.927509 
	C85.153595,48.410099 84.215027,45.763977 86.036674,40.061295 
	C86.582138,38.353703 87.645287,36.811474 88.725388,34.937805 
z"/>
<path fill="#987F10" opacity="1.000000" stroke="none" 
	d="
M114.297318,47.642376 
	C112.078636,48.247486 109.859962,48.852592 107.375465,49.716480 
	C103.491196,44.804031 104.099770,43.633751 112.143600,41.390297 
	C113.525703,41.178162 114.234474,41.165562 115.078209,41.433807 
	C114.907890,43.690563 114.602608,45.666470 114.297318,47.642376 
z"/>
<path fill="#878787" opacity="1.000000" stroke="none" 
	d="
M40.552597,27.140896 
	C37.251820,26.088861 34.167816,24.824024 31.083809,23.559189 
	C31.065928,23.217932 31.048046,22.876677 31.030165,22.535421 
	C34.157570,22.849512 37.302567,23.066401 40.385826,23.624405 
	C40.702595,23.681736 40.650372,25.777962 40.552597,27.140896 
z"/>
<path fill="#393524" opacity="1.000000" stroke="none" 
	d="
M141.638306,55.664253 
	C142.002228,52.576443 139.145798,52.121792 137.272675,50.381458 
	C137.097763,50.009052 137.052994,50.092724 137.310074,49.968063 
	C137.385788,49.369900 137.204437,48.896397 137.093689,48.334122 
	C137.164322,48.245342 137.057083,48.045395 137.057083,48.045395 
	C137.057083,48.045395 137.188736,47.934933 137.244019,48.000710 
	C138.738953,46.392567 140.178619,44.718639 141.934250,42.677319 
	C141.406479,42.432041 142.162079,42.622826 142.160217,42.805859 
	C142.116638,47.060120 141.990982,51.313541 141.638306,55.664253 
z"/>
<path fill="#987F10" opacity="1.000000" stroke="none" 
	d="
M89.071053,51.117996 
	C89.591301,50.927509 89.761169,50.923664 89.727196,50.926414 
	C92.840523,51.217587 95.987823,51.506012 99.566833,51.912769 
	C94.530899,52.248264 89.063271,52.465424 83.103806,52.657459 
	C84.591583,52.191051 86.571190,51.749767 89.071053,51.117996 
z"/>
<path fill="#848484" opacity="1.000000" stroke="none" 
	d="
M62.498531,63.670395 
	C63.882122,63.958126 64.945190,64.117897 66.492317,64.350410 
	C60.239834,66.795898 58.505066,66.338531 57.054993,61.313927 
	C59.147953,62.224361 60.662983,62.883396 62.498531,63.670395 
z"/>
<path fill="#484121" opacity="1.000000" stroke="none" 
	d="
M114.943237,41.152962 
	C114.234474,41.165562 113.525703,41.178162 112.462784,41.188873 
	C111.786552,38.861774 111.464470,36.536568 111.361252,34.067986 
	C111.939499,34.401520 112.298882,34.878429 113.151352,35.895454 
	C114.077377,38.008034 114.510307,39.580498 114.943237,41.152962 
z"/>
<path fill="#4A442A" opacity="1.000000" stroke="none" 
	d="
M30.664394,50.181381 
	C31.433067,50.093361 31.862320,50.112240 32.610901,50.152805 
	C32.947361,50.578281 32.964485,50.982075 32.981979,51.689262 
	C29.636482,52.127411 26.290611,52.262165 22.501007,52.291489 
	C22.342911,51.618130 22.628550,51.050201 23.052868,50.195900 
	C25.569353,50.035782 27.947163,50.162033 30.664394,50.181381 
z"/>
<path fill="#4A442A" opacity="1.000000" stroke="none" 
	d="
M63.249825,51.004616 
	C63.868885,50.599598 64.430145,50.614017 65.259453,50.716560 
	C65.972504,51.180561 66.417511,51.556438 66.984146,52.200367 
	C65.972786,52.480995 64.839790,52.493572 63.388336,52.384071 
	C63.110588,51.982681 63.151306,51.703369 63.249825,51.004616 
z"/>
<path fill="#C29F07" opacity="1.000000" stroke="none" 
	d="
M131.727142,32.155979 
	C130.983810,31.775940 130.212921,31.364206 129.442017,30.952473 
	C129.609665,30.719007 129.777313,30.485542 129.944946,30.252075 
	C130.450928,30.724815 130.956894,31.197556 131.598557,31.927505 
	C131.734253,32.184715 131.699570,32.124287 131.727142,32.155979 
z"/>
<path fill="#4A442A" opacity="1.000000" stroke="none" 
	d="
M46.312103,50.461891 
	C46.671570,50.277718 46.933472,50.257828 47.587685,50.257809 
	C48.004658,50.613461 48.029316,50.949249 48.049915,51.537949 
	C47.576237,51.830051 47.106613,51.869236 46.291946,51.825165 
	C46.036110,51.370003 46.125324,50.998089 46.312103,50.461891 
z"/>
<path fill="#393524" opacity="1.000000" stroke="none" 
	d="
M135.273834,39.866486 
	C135.237747,39.708462 135.359482,39.416462 135.740662,39.127869 
	C135.824799,39.345085 135.635300,39.545494 135.273834,39.866486 
z"/>
<path fill="#403B23" opacity="1.000000" stroke="none" 
	d="
M115.078209,41.433807 
	C114.510307,39.580498 114.077377,38.008034 113.499474,36.185646 
	C116.335266,35.571285 119.316032,35.206852 122.659859,35.367683 
	C123.053482,36.350891 123.084030,36.808838 123.114594,37.266781 
	C122.723724,38.272476 122.332855,39.278172 121.737946,40.597755 
	C121.329559,41.038864 121.125198,41.166073 120.920837,41.293282 
	C121.202118,41.556957 121.483398,41.820633 121.764687,42.084305 
	C121.764687,42.084305 121.952713,41.971085 122.027534,42.276413 
	C122.305283,43.668640 122.508209,44.755535 122.711136,45.842426 
	C120.116425,46.348259 117.521698,46.854092 114.612152,47.501152 
	C114.602608,45.666470 114.907890,43.690563 115.078209,41.433807 
M117.898758,38.124966 
	C117.898758,38.124966 117.868729,38.378506 117.868729,38.378506 
	C117.868729,38.378506 117.997498,37.997978 118.039085,37.973091 
	C118.039085,37.973091 118.001984,38.002506 117.898758,38.124966 
z"/>
<path fill="#937B11" opacity="1.000000" stroke="none" 
	d="
M136.712051,48.014717 
	C137.057083,48.045395 137.164322,48.245342 137.057129,48.752384 
	C136.984268,49.537193 137.018631,49.814957 137.052994,50.092724 
	C137.052994,50.092724 137.097763,50.009052 137.139618,50.031376 
	C134.633102,50.281815 131.965347,51.063637 129.577209,50.548676 
	C127.909470,50.189060 126.624519,48.054302 125.308556,46.205917 
	C125.640648,45.313061 125.832779,44.926720 126.257278,44.273026 
	C126.699600,43.340981 126.909554,42.676281 127.383682,41.918495 
	C128.362045,41.637714 129.076218,41.450020 129.790390,41.262321 
	C129.934219,41.920609 130.078049,42.578896 130.223877,43.788017 
	C130.804962,44.909863 131.384079,45.480869 131.963181,46.051880 
	C133.431122,46.695930 134.899078,47.339985 136.712051,48.014717 
M128.475128,43.469112 
	C128.475128,43.469112 128.502304,43.530460 128.475128,43.469112 
z"/>
<path fill="#B99809" opacity="1.000000" stroke="none" 
	d="
M126.024918,44.540375 
	C125.832779,44.926720 125.640648,45.313061 125.285492,45.840805 
	C124.586029,45.953529 124.049591,45.924850 123.112137,45.869301 
	C122.508209,44.755535 122.305283,43.668640 122.133110,42.246483 
	C123.186935,41.951122 124.210014,41.991024 125.616547,42.015465 
	C126.000000,42.000000 125.999153,41.999157 125.990913,42.422272 
	C125.996758,43.410385 126.010834,43.975384 126.024918,44.540375 
z"/>
<path fill="#B99809" opacity="1.000000" stroke="none" 
	d="
M129.705933,41.005829 
	C129.076218,41.450020 128.362045,41.637714 127.103409,41.911381 
	C126.372353,41.997952 126.185753,41.998554 125.999153,41.999157 
	C125.999153,41.999157 126.000000,42.000000 126.000397,42.000526 
	C127.207680,41.583813 128.414566,41.166573 129.705933,41.005829 
z"/>
<path fill="#B99809" opacity="1.000000" stroke="none" 
	d="
M131.871979,45.788326 
	C131.384079,45.480869 130.804962,44.909863 130.293488,44.117683 
	C130.834351,44.439266 131.307556,44.982021 131.871979,45.788326 
z"/>
<path fill="#484121" opacity="1.000000" stroke="none" 
	d="
M123.359131,37.169830 
	C123.084030,36.808838 123.053482,36.350891 123.003845,35.549255 
	C123.191063,35.827999 123.397369,36.450439 123.359131,37.169830 
z"/>
<path fill="#484121" opacity="1.000000" stroke="none" 
	d="
M121.826813,41.802216 
	C121.483398,41.820633 121.202118,41.556957 120.920837,41.293282 
	C121.125198,41.166073 121.329559,41.038864 121.675598,40.929268 
	C121.841164,41.137962 121.865044,41.329041 121.826813,41.802216 
z"/>
<path fill="#2A2A29" opacity="1.000000" stroke="none" 
	d="
M135.475266,29.352634 
	C135.428604,29.348463 135.374313,29.593159 135.374313,29.593159 
	C135.374313,29.593159 135.565872,29.567907 135.518250,29.495022 
	C135.470612,29.422138 135.521927,29.356808 135.475266,29.352634 
z"/>
<path fill="#D2AC03" opacity="1.000000" stroke="none" 
	d="
M137.310074,49.968063 
	C137.018631,49.814957 136.984268,49.537193 136.986496,48.841164 
	C137.204437,48.896397 137.385788,49.369900 137.310074,49.968063 
z"/>
<path fill="#484121" opacity="1.000000" stroke="none" 
	d="
M117.997498,37.997978 
	C117.997498,37.997978 117.868729,38.378506 117.868729,38.378506 
	C117.868729,38.378506 117.898758,38.124966 117.949379,38.062485 
	C118.000000,38.000000 117.997498,37.997978 117.997498,37.997978 
z"/>
<path fill="#484121" opacity="1.000000" stroke="none" 
	d="
M118.000992,38.001251 
	C118.001984,38.002506 118.039085,37.973091 118.018295,37.985535 
	C117.997498,37.997978 118.000000,38.000000 118.000992,38.001251 
z"/>
<path fill="#D2AC03" opacity="1.000000" stroke="none" 
	d="
M125.990913,42.422272 
	C126.185753,41.998554 126.372353,41.997952 126.839226,42.004463 
	C126.909554,42.676281 126.699600,43.340981 126.257278,44.273029 
	C126.010834,43.975384 125.996758,43.410385 125.990913,42.422272 
z"/>
<path fill="#D2AC03" opacity="1.000000" stroke="none" 
	d="
M128.488708,43.499786 
	C128.502304,43.530460 128.475128,43.469112 128.488708,43.499786 
z"/>
</svg>